{"glyphs":{"0":{"ha":590,"x_min":42,"x_max":549,"o":"m 204 0 q 141 13 171 0 q 89 47 111 25 q 54 99 67 69 q 42 163 42 129 l 42 810 q 54 873 42 843 q 89 925 67 903 q 141 960 111 947 q 204 972 171 972 l 386 972 q 449 960 419 972 q 501 925 479 947 q 536 873 524 903 q 549 810 549 843 l 549 163 q 536 99 549 129 q 501 47 524 69 q 449 13 479 25 q 386 0 419 0 l 204 0 m 188 211 q 211 153 188 178 q 268 129 235 129 l 321 129 q 379 153 356 129 q 403 211 403 178 l 403 761 q 379 819 403 796 q 321 843 356 843 l 268 843 q 211 819 235 843 q 188 761 188 796 l 188 211 z "},"1":{"ha":311,"x_min":28,"x_max":283,"o":"m 283 972 l 283 0 l 138 0 l 138 843 l 28 843 l 28 972 l 283 972 z "},"2":{"ha":576,"x_min":35,"x_max":542,"o":"m 35 351 q 47 415 35 385 q 82 467 60 444 q 134 501 104 489 q 197 514 164 514 l 396 514 l 396 843 l 181 843 l 181 697 l 35 697 l 35 810 q 47 872 35 843 q 82 924 60 901 q 133 958 104 946 q 196 971 163 971 l 379 972 q 442 960 413 972 q 494 925 472 947 q 529 873 517 903 q 542 810 542 843 l 542 546 q 529 483 542 513 q 494 431 517 453 q 442 397 472 410 q 379 383 413 383 l 181 383 l 181 129 l 542 129 l 542 0 l 35 0 l 35 351 z "},"3":{"ha":558,"x_min":35,"x_max":524,"o":"m 35 129 l 378 129 l 378 438 l 79 438 l 79 567 l 378 567 l 378 843 l 35 843 l 35 972 l 361 972 q 424 960 394 972 q 476 925 454 947 q 511 873 499 903 q 524 810 524 843 l 524 664 q 506 574 524 615 q 456 501 488 533 q 506 429 488 471 q 524 340 524 388 l 524 163 q 511 99 524 129 q 476 47 499 69 q 424 13 454 25 q 361 0 394 0 l 35 0 l 35 129 z "},"4":{"ha":681,"x_min":35,"x_max":653,"o":"m 401 972 l 547 972 l 547 232 l 653 232 l 653 103 l 547 103 l 547 0 l 401 0 l 401 103 l 35 103 l 35 232 l 401 972 m 401 232 l 401 678 l 181 232 l 401 232 z "},"5":{"ha":590,"x_min":42,"x_max":549,"o":"m 188 275 l 188 129 l 403 129 l 403 458 l 204 458 q 141 471 171 458 q 89 506 111 483 q 54 558 67 528 q 42 621 42 588 l 42 972 l 513 972 l 513 842 l 188 842 l 188 589 l 386 589 q 449 576 419 589 q 501 541 479 563 q 536 490 524 519 q 549 426 549 460 l 549 163 q 536 99 549 129 q 501 47 524 69 q 449 13 479 25 q 386 0 419 0 l 203 1 q 140 14 169 1 q 89 49 111 26 q 54 100 67 71 q 42 163 42 129 l 42 275 l 188 275 z "},"6":{"ha":590,"x_min":42,"x_max":549,"o":"m 42 465 q 54 526 42 499 l 232 972 l 389 972 l 253 628 l 386 628 q 449 615 419 628 q 501 580 479 601 q 536 528 524 558 q 549 465 549 499 l 549 163 q 536 99 549 129 q 501 47 524 69 q 449 13 479 25 q 386 0 419 0 l 204 0 q 141 13 171 0 q 89 47 111 25 q 54 99 67 69 q 42 163 42 129 l 42 465 m 403 129 l 403 497 l 188 497 l 188 129 l 403 129 z "},"7":{"ha":532,"x_min":35,"x_max":511,"o":"m 40 972 l 511 972 l 511 842 l 175 0 l 35 0 l 371 842 l 40 842 l 40 972 z "},"8":{"ha":603,"x_min":43,"x_max":560,"o":"m 43 810 q 56 873 43 843 q 90 924 68 903 q 142 959 113 946 q 206 972 172 972 l 397 972 q 460 959 431 972 q 513 924 490 946 q 547 873 535 903 q 560 810 560 843 l 560 664 q 542 574 560 615 q 492 501 524 533 q 542 429 524 471 q 560 340 560 388 l 560 163 q 547 99 560 129 q 513 48 535 69 q 460 13 490 26 q 397 0 431 0 l 206 0 q 142 13 172 0 q 90 48 113 26 q 56 99 68 69 q 43 163 43 129 l 43 340 q 61 429 43 388 q 111 501 79 471 q 61 574 79 533 q 43 664 43 615 l 43 810 m 414 129 l 414 438 l 189 438 l 189 129 l 414 129 m 414 567 l 414 843 l 189 843 l 189 567 l 414 567 z "},"9":{"ha":563,"x_min":28,"x_max":535,"o":"m 190 346 q 127 358 157 346 q 75 393 97 371 q 40 444 53 415 q 28 507 28 474 l 28 810 q 40 873 28 843 q 75 925 53 903 q 127 960 97 947 q 190 972 157 972 l 372 972 q 435 960 406 972 q 488 925 465 947 q 522 873 510 903 q 535 810 535 843 l 535 507 q 522 446 535 472 l 344 0 l 188 0 l 324 346 l 190 346 m 174 475 l 389 475 l 389 843 l 174 843 l 174 475 z "},"n":{"ha":621,"x_min":42,"x_max":579,"o":"m 42 0 l 42 882 l 188 882 l 433 328 l 433 882 l 579 882 l 579 0 l 433 0 l 433 4 l 188 558 l 188 0 l 42 0 z "},"o":{"ha":563,"x_min":28,"x_max":535,"o":"m 28 719 q 40 783 28 753 q 75 834 53 813 q 127 869 97 856 q 190 882 157 882 l 372 882 q 435 869 406 882 q 488 834 465 856 q 522 783 510 813 q 535 719 535 753 l 535 163 q 522 99 535 129 q 488 47 510 69 q 435 13 465 25 q 372 0 406 0 l 190 0 q 127 13 157 0 q 75 47 97 25 q 40 99 53 69 q 28 163 28 129 l 28 719 m 389 129 l 389 751 l 174 751 l 174 129 l 389 129 z "},"a":{"ha":600,"x_min":7,"x_max":593,"o":"m 7 0 l 225 882 l 375 882 l 593 0 l 442 0 l 400 171 l 200 171 l 157 0 l 7 0 m 368 301 l 300 578 l 232 301 l 368 301 z "},"i":{"ha":229,"x_min":42,"x_max":188,"o":"m 42 0 l 42 882 l 188 882 l 188 0 l 42 0 z "},"e":{"ha":511,"x_min":42,"x_max":476,"o":"m 42 0 l 42 882 l 476 882 l 476 751 l 188 751 l 188 525 l 419 525 l 419 396 l 188 396 l 188 129 l 476 129 l 476 0 l 42 0 z "},"p":{"ha":558,"x_min":42,"x_max":531,"o":"m 368 882 q 431 869 401 882 q 483 834 461 856 q 518 783 506 813 q 531 719 531 753 l 531 442 q 518 379 531 408 q 483 328 506 350 q 431 293 461 306 q 368 281 401 281 l 188 281 l 188 0 l 42 0 l 42 882 l 368 882 m 188 751 l 188 410 l 385 410 l 385 751 l 188 751 z "},"b":{"ha":565,"x_min":42,"x_max":531,"o":"m 42 882 l 322 882 q 385 869 356 882 q 438 834 415 856 q 472 783 460 813 q 485 719 485 753 l 485 582 q 467 517 485 542 q 419 481 449 493 q 499 423 468 465 q 531 328 531 381 l 531 163 q 518 99 531 129 q 483 47 506 69 q 431 13 461 25 q 368 0 401 0 l 42 0 l 42 882 m 188 129 l 385 129 l 385 419 l 188 419 l 188 129 m 339 550 l 339 751 l 188 751 l 188 550 l 339 550 z "},"c":{"ha":563,"x_min":28,"x_max":535,"o":"m 190 0 q 127 13 157 0 q 75 47 97 25 q 40 99 53 69 q 28 163 28 129 l 28 719 q 40 783 28 753 q 75 834 53 813 q 127 869 97 856 q 190 882 157 882 l 372 882 q 435 869 406 882 q 488 834 465 856 q 522 783 510 813 q 535 719 535 753 l 535 565 l 389 565 l 389 751 l 174 751 l 174 129 l 389 129 l 389 317 l 535 317 l 535 163 q 522 99 535 129 q 488 47 510 69 q 435 13 465 25 q 372 0 406 0 l 190 0 l 190 0 z "},"d":{"ha":589,"x_min":42,"x_max":554,"o":"m 42 882 l 360 882 q 435 867 400 882 q 497 825 471 851 q 539 763 524 799 q 554 688 554 728 l 554 194 q 539 119 554 154 q 497 57 524 83 q 435 15 471 31 q 360 0 400 0 l 42 0 l 42 882 m 188 751 l 188 129 l 408 129 l 408 751 l 188 751 z "},"l":{"ha":511,"x_min":42,"x_max":476,"o":"m 42 0 l 42 882 l 188 882 l 188 129 l 476 129 l 476 0 l 42 0 z "},"h":{"ha":590,"x_min":42,"x_max":549,"o":"m 188 882 l 188 457 l 403 457 l 403 882 l 549 882 l 549 0 l 403 0 l 403 328 l 188 328 l 188 0 l 42 0 l 42 882 l 188 882 z "},"k":{"ha":558,"x_min":42,"x_max":551,"o":"m 42 882 l 188 882 l 188 461 l 396 882 l 551 882 l 321 439 l 551 0 l 396 0 l 188 421 l 188 0 l 42 0 l 42 882 z "},"m":{"ha":763,"x_min":42,"x_max":721,"o":"m 42 882 l 188 882 l 382 364 l 575 882 l 721 882 l 721 0 l 575 0 l 575 496 l 451 178 l 311 178 l 188 496 l 188 0 l 42 0 l 42 882 z "},"u":{"ha":563,"x_min":28,"x_max":535,"o":"m 28 882 l 174 882 l 174 129 l 389 129 l 389 882 l 535 882 l 535 163 q 522 99 535 129 q 488 47 510 69 q 435 13 465 25 q 372 0 406 0 l 190 0 q 127 13 157 0 q 75 47 97 25 q 40 99 53 69 q 28 163 28 129 l 28 882 z "},"r":{"ha":563,"x_min":42,"x_max":542,"o":"m 42 882 l 368 882 q 431 869 401 882 q 483 834 461 856 q 518 783 506 813 q 531 719 531 753 l 531 442 q 518 379 531 408 q 483 328 506 350 q 431 293 461 306 q 368 281 401 281 l 354 281 l 542 0 l 385 0 l 188 281 l 188 0 l 42 0 l 42 882 m 188 410 l 385 410 l 385 751 l 188 751 l 188 410 z "},"f":{"ha":511,"x_min":42,"x_max":476,"o":"m 42 882 l 476 882 l 476 751 l 188 751 l 188 525 l 419 525 l 419 396 l 188 396 l 188 0 l 42 0 l 42 882 z "},"s":{"ha":563,"x_min":28,"x_max":535,"o":"m 28 719 q 40 783 28 753 q 75 834 53 813 q 127 869 97 856 q 190 882 157 882 l 372 882 q 435 869 406 882 q 488 834 465 856 q 522 783 510 813 q 535 719 535 753 l 535 608 l 389 608 l 389 751 l 174 751 l 174 506 l 372 506 q 435 493 406 506 q 488 458 465 481 q 522 406 510 436 q 535 343 535 376 l 535 163 q 522 99 535 129 q 488 48 510 69 q 435 13 465 26 q 372 0 406 0 l 189 1 q 126 14 156 1 q 75 49 97 26 q 40 101 53 71 q 28 164 28 131 l 28 275 l 174 275 l 174 129 l 389 129 l 389 376 l 190 376 q 127 389 157 376 q 75 424 97 401 q 40 475 53 446 q 28 538 28 504 l 28 719 z "},"z":{"ha":560,"x_min":28,"x_max":532,"o":"m 532 882 l 532 736 l 176 146 l 532 146 l 532 0 l 28 0 l 28 146 l 385 736 l 28 736 l 28 882 l 532 882 z "},"q":{"ha":563,"x_min":28,"x_max":535,"o":"m 28 719 q 40 783 28 753 q 75 834 53 813 q 127 869 97 856 q 190 882 157 882 l 372 882 q 435 869 406 882 q 488 834 465 856 q 522 783 510 813 q 535 719 535 753 l 535 163 q 522 99 535 129 q 488 47 510 69 q 435 13 465 25 q 372 0 406 0 l 368 0 l 438 -139 l 293 -139 l 224 0 l 190 0 q 127 13 157 0 q 75 47 97 25 q 40 99 53 69 q 28 163 28 129 l 28 719 m 389 129 l 389 751 l 174 751 l 174 129 l 389 129 z "},"g":{"ha":569,"x_min":28,"x_max":535,"o":"m 28 719 q 40 783 28 753 q 75 834 53 813 q 127 869 97 856 q 190 882 157 882 l 372 882 q 435 869 406 882 q 488 834 465 856 q 522 783 510 813 q 535 719 535 753 l 535 644 l 389 644 l 389 751 l 174 751 l 174 129 l 389 129 l 389 342 l 281 342 l 281 472 l 535 472 l 535 163 q 522 99 535 129 q 488 47 510 69 q 435 13 465 25 q 372 0 406 0 l 190 0 q 127 13 157 0 q 75 47 97 25 q 40 99 53 69 q 28 163 28 129 l 28 719 l 28 719 z "},"j":{"ha":576,"x_min":28,"x_max":535,"o":"m 28 317 l 174 317 l 174 129 l 389 129 l 389 882 l 535 882 l 535 163 q 522 99 535 129 q 488 47 510 69 q 435 13 465 25 q 372 0 406 0 l 190 0 q 127 13 157 0 q 75 47 97 25 q 40 99 53 69 q 28 163 28 129 l 28 317 z "},"t":{"ha":535,"x_min":14,"x_max":522,"o":"m 14 751 l 14 882 l 522 882 l 522 751 l 340 751 l 340 0 l 194 0 l 194 751 l 14 751 z "},"v":{"ha":600,"x_min":7,"x_max":593,"o":"m 157 882 l 300 304 l 442 882 l 593 882 l 375 0 l 225 0 l 7 882 l 157 882 z "},"y":{"ha":618,"x_min":7,"x_max":611,"o":"m 169 882 l 310 604 l 449 882 l 611 882 l 382 424 l 382 0 l 236 0 l 236 424 l 7 882 l 169 882 z "},"w":{"ha":815,"x_min":7,"x_max":808,"o":"m 7 882 l 156 882 l 246 390 l 342 882 l 474 882 l 569 390 l 660 882 l 808 882 l 644 0 l 497 0 l 408 507 l 318 0 l 171 0 l 7 882 z "},"x":{"ha":618,"x_min":7,"x_max":611,"o":"m 169 882 l 310 604 l 449 882 l 611 882 l 390 440 l 611 0 l 449 0 l 310 278 l 169 0 l 7 0 l 228 440 l 7 882 l 169 882 z "},"H":{"ha":590,"x_min":42,"x_max":549,"o":"m 188 972 l 188 517 l 403 517 l 403 972 l 549 972 l 549 0 l 403 0 l 403 388 l 188 388 l 188 0 l 42 0 l 42 972 l 188 972 z "},"O":{"ha":563,"x_min":28,"x_max":535,"o":"m 28 810 q 40 873 28 843 q 75 925 53 903 q 127 960 97 947 q 190 972 157 972 l 372 972 q 435 960 406 972 q 488 925 465 947 q 522 873 510 903 q 535 810 535 843 l 535 163 q 522 99 535 129 q 488 47 510 69 q 435 13 465 25 q 372 0 406 0 l 190 0 q 127 13 157 0 q 75 47 97 25 q 40 99 53 69 q 28 163 28 129 l 28 810 m 174 129 l 389 129 l 389 843 l 174 843 l 174 129 z "},"A":{"ha":599,"x_min":7,"x_max":592,"o":"m 7 0 l 225 972 l 374 972 l 592 0 l 442 0 l 404 171 l 194 171 l 157 0 l 7 0 m 375 301 l 300 639 l 224 301 l 375 301 z "},"I":{"ha":229,"x_min":42,"x_max":188,"o":"m 42 0 l 42 972 l 188 972 l 188 0 l 42 0 z "},"E":{"ha":511,"x_min":42,"x_max":476,"o":"m 42 972 l 476 972 l 476 843 l 188 843 l 188 571 l 419 571 l 419 440 l 188 440 l 188 129 l 476 129 l 476 0 l 42 0 l 42 972 z "},"P":{"ha":558,"x_min":42,"x_max":531,"o":"m 42 972 l 368 972 q 431 960 401 972 q 483 925 461 947 q 518 873 506 903 q 531 810 531 843 l 531 533 q 518 470 531 500 q 483 418 506 440 q 431 383 461 396 q 368 371 401 371 l 188 371 l 188 0 l 42 0 l 42 972 m 188 500 l 385 500 l 385 843 l 188 843 l 188 500 z "},"D":{"ha":589,"x_min":42,"x_max":554,"o":"m 42 972 l 360 972 q 435 957 400 972 q 497 915 471 942 q 539 853 524 889 q 554 778 554 818 l 554 194 q 539 119 554 154 q 497 57 524 83 q 435 15 471 31 q 360 0 400 0 l 42 0 l 42 972 m 188 843 l 188 129 l 408 129 l 408 843 l 188 843 z "},"C":{"ha":563,"x_min":28,"x_max":535,"o":"m 190 0 q 127 13 157 0 q 75 47 97 25 q 40 99 53 69 q 28 163 28 129 l 28 810 q 40 873 28 843 q 75 925 53 903 q 127 960 97 947 q 190 972 157 972 l 372 972 q 435 960 406 972 q 488 925 465 947 q 522 873 510 903 q 535 810 535 843 l 535 657 l 389 657 l 389 843 l 174 843 l 174 129 l 389 129 l 389 317 l 535 317 l 535 163 q 522 99 535 129 q 488 47 510 69 q 435 13 465 25 q 372 0 406 0 l 190 0 l 190 0 z "},"B":{"ha":565,"x_min":42,"x_max":531,"o":"m 322 972 q 385 960 356 972 q 438 925 415 947 q 472 873 460 903 q 485 810 485 843 l 485 633 q 467 569 485 593 q 419 533 449 546 q 499 475 468 517 q 531 379 531 433 l 531 163 q 518 99 531 129 q 483 47 506 69 q 431 13 461 25 q 368 0 401 0 l 42 0 l 42 972 l 322 972 m 385 129 l 385 472 l 188 472 l 188 129 l 385 129 m 188 843 l 188 601 l 339 601 l 339 843 l 188 843 z "},"L":{"ha":511,"x_min":42,"x_max":476,"o":"m 42 0 l 42 972 l 188 972 l 188 129 l 476 129 l 476 0 l 42 0 z "},"F":{"ha":511,"x_min":42,"x_max":476,"o":"m 42 0 l 42 972 l 476 972 l 476 843 l 188 843 l 188 571 l 419 571 l 419 440 l 188 440 l 188 0 l 42 0 z "},"K":{"ha":582,"x_min":42,"x_max":575,"o":"m 42 0 l 42 972 l 188 972 l 188 506 l 418 972 l 575 972 l 321 485 l 575 0 l 418 0 l 188 467 l 188 0 l 42 0 z "},"R":{"ha":551,"x_min":42,"x_max":531,"o":"m 42 972 l 368 972 q 431 960 401 972 q 483 925 461 947 q 518 873 506 903 q 531 810 531 843 l 531 533 q 518 470 531 500 q 483 418 506 440 q 431 383 461 396 q 368 371 401 371 l 336 371 l 531 0 l 385 0 l 188 371 l 188 0 l 42 0 l 42 972 m 385 500 l 385 843 l 188 843 l 188 500 l 385 500 z "},"N":{"ha":664,"x_min":42,"x_max":622,"o":"m 42 0 l 42 972 l 188 972 l 476 324 l 476 972 l 622 972 l 622 0 l 476 0 l 188 649 l 188 0 l 42 0 z "},"M":{"ha":763,"x_min":42,"x_max":721,"o":"m 42 972 l 188 972 l 382 456 l 575 972 l 721 972 l 721 0 l 575 0 l 575 588 l 451 269 l 311 269 l 188 588 l 188 0 l 42 0 l 42 972 z "},"T":{"ha":535,"x_min":14,"x_max":522,"o":"m 14 972 l 522 972 l 522 843 l 340 843 l 340 0 l 194 0 l 194 843 l 14 843 l 14 972 z "},"S":{"ha":563,"x_min":28,"x_max":535,"o":"m 174 275 l 174 129 l 389 129 l 389 421 l 190 421 q 127 434 157 421 q 75 469 97 447 q 40 520 53 490 q 28 583 28 550 l 28 810 q 40 873 28 843 q 75 925 53 903 q 127 960 97 947 q 190 972 157 972 l 372 972 q 435 960 406 972 q 488 925 465 947 q 522 873 510 903 q 535 810 535 843 l 535 699 l 389 699 l 389 843 l 174 843 l 174 551 l 372 551 q 435 538 406 551 q 488 503 465 525 q 522 452 510 482 q 535 389 535 422 l 535 163 q 522 99 535 129 q 488 48 510 69 q 435 13 465 26 q 372 0 406 0 l 189 1 q 126 14 156 1 q 75 49 97 26 q 40 101 53 71 q 28 164 28 131 l 28 275 l 174 275 z "},"Z":{"ha":560,"x_min":28,"x_max":532,"o":"m 532 972 l 532 826 l 168 146 l 532 146 l 532 0 l 28 0 l 28 146 l 392 826 l 28 826 l 28 972 l 532 972 z "},"G":{"ha":569,"x_min":28,"x_max":535,"o":"m 28 810 q 40 873 28 843 q 75 925 53 903 q 127 960 97 947 q 190 972 157 972 l 372 972 q 435 960 406 972 q 488 925 465 947 q 522 873 510 903 q 535 810 535 843 l 535 736 l 389 736 l 389 843 l 174 843 l 174 129 l 389 129 l 389 433 l 281 433 l 281 563 l 535 563 l 535 163 q 522 99 535 129 q 488 47 510 69 q 435 13 465 25 q 372 0 406 0 l 190 0 q 127 13 157 0 q 75 47 97 25 q 40 99 53 69 q 28 163 28 129 l 28 810 z "},"Q":{"ha":563,"x_min":28,"x_max":535,"o":"m 28 810 q 40 873 28 843 q 75 925 53 903 q 127 960 97 947 q 190 972 157 972 l 372 972 q 435 960 406 972 q 488 925 465 947 q 522 873 510 903 q 535 810 535 843 l 535 163 q 522 99 535 129 q 488 47 510 69 q 435 13 465 25 q 372 0 406 0 l 367 0 l 436 -139 l 292 -139 l 222 0 l 190 0 q 127 13 157 0 q 75 47 97 25 q 40 99 53 69 q 28 163 28 129 l 28 810 m 174 843 l 174 129 l 389 129 l 389 843 l 174 843 z "},"J":{"ha":576,"x_min":28,"x_max":535,"o":"m 190 0 q 127 13 157 0 q 75 47 97 25 q 40 99 53 69 q 28 163 28 129 l 28 317 l 174 317 l 174 129 l 389 129 l 389 972 l 535 972 l 535 163 q 522 99 535 129 q 488 47 510 69 q 435 13 465 25 q 372 0 406 0 l 190 0 l 190 0 z "},"U":{"ha":563,"x_min":28,"x_max":535,"o":"m 190 0 q 127 13 157 0 q 75 47 97 25 q 40 99 53 69 q 28 163 28 129 l 28 972 l 174 972 l 174 129 l 389 129 l 389 972 l 535 972 l 535 163 q 522 99 535 129 q 488 47 510 69 q 435 13 465 25 q 372 0 406 0 l 190 0 l 190 0 z "},"V":{"ha":599,"x_min":7,"x_max":592,"o":"m 7 972 l 157 972 l 300 333 l 442 972 l 592 972 l 374 0 l 225 0 l 7 972 z "},"Y":{"ha":615,"x_min":7,"x_max":608,"o":"m 167 972 l 308 663 l 449 972 l 608 972 l 381 471 l 381 0 l 235 0 l 235 471 l 7 972 l 167 972 z "},"W":{"ha":815,"x_min":7,"x_max":808,"o":"m 7 972 l 156 972 l 243 417 l 342 972 l 474 972 l 571 415 l 660 972 l 808 972 l 644 0 l 506 0 l 407 581 l 310 0 l 171 0 l 7 972 z "},"X":{"ha":615,"x_min":7,"x_max":608,"o":"m 167 972 l 308 663 l 449 972 l 608 972 l 388 486 l 608 0 l 449 0 l 308 310 l 167 0 l 7 0 l 228 486 l 7 972 l 167 972 z "},".":{"ha":201,"x_min":28,"x_max":174,"o":"m 28 -37 l 28 108 l 174 108 l 174 -37 l 28 -37 z "},",":{"ha":201,"x_min":28,"x_max":174,"o":"m 174 108 l 174 -37 l 101 -114 l 101 -37 l 28 -37 l 28 108 l 174 108 z "},"#":{"ha":1047,"x_min":42,"x_max":1006,"o":"m 42 719 l 332 719 l 404 972 l 556 972 l 483 719 l 690 719 l 763 972 l 914 972 l 842 719 l 1006 719 l 1006 574 l 800 574 l 746 386 l 1006 386 l 1006 240 l 704 240 l 636 0 l 485 0 l 553 240 l 346 240 l 278 0 l 125 0 l 194 240 l 42 240 l 42 386 l 236 386 l 290 574 l 42 574 l 42 719 m 594 386 l 649 574 l 442 574 l 388 386 l 594 386 z "},"@":{"ha":1025,"x_min":44,"x_max":982,"o":"m 44 794 q 58 864 44 832 q 97 920 72 896 q 153 958 121 944 q 222 972 185 972 l 804 972 q 874 958 842 972 q 930 920 906 944 q 968 864 954 896 q 982 794 982 832 l 982 190 l 411 192 q 348 204 378 192 q 297 239 318 217 q 262 290 275 261 q 249 353 249 319 l 249 619 q 262 683 249 653 q 297 735 275 713 q 348 769 318 757 q 411 782 378 782 l 756 782 l 756 279 l 893 279 l 893 786 q 865 855 893 826 q 796 883 836 883 l 231 883 q 162 855 190 883 q 133 786 133 826 l 133 186 q 162 117 133 146 q 231 89 190 89 l 893 89 l 893 0 l 222 0 q 153 14 185 0 q 97 52 121 28 q 58 108 72 76 q 44 178 44 140 l 44 794 m 610 279 l 610 693 l 394 693 l 394 279 l 610 279 z "},"$":{"ha":589,"x_min":40,"x_max":547,"o":"m 186 275 l 186 129 l 401 129 l 401 421 l 203 421 q 140 434 169 421 q 88 469 110 447 q 53 520 65 490 q 40 583 40 550 l 40 810 q 53 873 40 843 q 88 925 65 903 q 140 960 110 947 q 203 972 169 972 l 229 972 l 229 1064 l 358 1064 l 358 972 l 385 972 q 448 960 418 972 q 500 925 478 947 q 535 873 522 903 q 547 810 547 843 l 547 699 l 401 699 l 401 843 l 186 843 l 186 551 l 385 551 q 448 538 418 551 q 500 503 478 525 q 535 452 522 482 q 547 389 547 422 l 547 163 q 535 99 547 129 q 500 48 522 69 q 448 13 478 26 q 385 0 418 0 l 358 0 l 358 -92 l 229 -92 l 229 0 l 201 0 q 139 13 168 0 q 88 49 110 26 q 53 101 65 71 q 40 164 40 131 l 40 275 l 186 275 z "},"€":{"ha":647,"x_min":28,"x_max":611,"o":"m 28 360 l 28 457 l 104 457 l 104 517 l 28 517 l 28 614 l 104 614 l 104 810 q 117 873 104 843 q 151 925 129 903 q 203 960 174 947 q 265 972 232 972 l 449 972 q 512 960 482 972 q 563 925 542 947 q 598 873 585 903 q 611 810 611 843 l 611 657 l 465 657 l 465 843 l 250 843 l 250 614 l 432 614 l 432 517 l 250 517 l 250 457 l 432 457 l 432 360 l 250 360 l 250 129 l 465 129 l 465 317 l 611 317 l 611 163 q 598 99 611 129 q 563 47 585 69 q 512 13 542 25 q 449 0 482 0 l 265 0 q 203 13 232 0 q 151 47 174 25 q 117 99 129 69 q 104 163 104 129 l 104 360 l 28 360 z "},"%":{"ha":865,"x_min":42,"x_max":824,"o":"m 42 883 q 68 946 42 919 q 131 972 94 972 l 231 972 q 293 946 267 972 q 319 883 319 919 l 319 529 q 293 466 319 492 q 231 440 267 440 l 131 440 q 68 466 94 440 q 42 529 42 492 l 42 883 m 635 -3 q 572 23 599 -3 q 546 86 546 49 l 546 440 q 572 503 546 478 q 635 529 599 529 l 735 529 q 797 503 771 529 q 824 440 824 478 l 824 86 q 797 23 824 49 q 735 -3 771 -3 l 635 -3 m 161 0 l 592 972 l 703 972 l 272 0 l 161 0 m 626 113 q 639 81 626 93 q 671 68 651 68 l 700 68 q 731 81 718 68 q 744 113 744 93 l 744 414 q 731 446 744 433 q 700 458 718 458 l 671 458 q 639 446 651 458 q 626 414 626 433 l 626 113 m 167 901 q 135 889 147 901 q 122 857 122 876 l 122 556 q 135 524 122 536 q 167 511 147 511 l 194 511 q 226 524 214 511 q 239 556 239 536 l 239 857 q 226 889 239 876 q 194 901 214 901 l 167 901 z "},"(":{"ha":360,"x_min":46,"x_max":318,"o":"m 208 0 q 145 13 175 0 q 93 47 115 25 q 58 99 71 69 q 46 163 46 129 l 46 810 q 58 873 46 843 q 93 925 71 903 q 145 960 115 947 q 208 972 175 972 l 318 972 l 318 843 l 192 843 l 192 129 l 318 129 l 318 0 l 208 0 l 208 0 z "},"{":{"ha":342,"x_min":42,"x_max":314,"o":"m 314 972 l 314 843 l 188 843 l 188 129 l 314 129 l 314 0 l 42 0 l 42 972 l 314 972 z "},"}":{"ha":349,"x_min":28,"x_max":300,"o":"m 28 0 l 28 129 l 154 129 l 154 843 l 28 843 l 28 972 l 300 972 l 300 0 l 28 0 z "},"&":{"ha":386,"x_min":26,"x_max":367,"o":"m 26 514 l 94 514 l 94 935 l 367 935 l 367 806 l 239 806 l 235 558 q 219 499 235 526 q 176 454 204 471 l 168 449 q 217 404 199 433 q 235 340 235 375 l 239 93 l 367 93 l 367 -37 l 94 -37 l 94 383 l 26 383 l 26 514 z "},"]":{"ha":386,"x_min":18,"x_max":358,"o":"m 18 93 l 146 93 l 150 340 q 169 404 151 375 q 218 449 186 433 l 208 454 q 166 499 181 471 q 150 558 151 526 l 146 806 l 18 806 l 18 935 l 290 935 l 290 514 l 358 514 l 358 383 l 290 383 l 290 -37 l 18 -37 l 18 93 z "},")":{"ha":360,"x_min":42,"x_max":314,"o":"m 42 129 l 168 129 l 168 843 l 42 843 l 42 972 l 151 972 q 215 960 185 972 q 267 925 244 947 q 301 873 289 903 q 314 810 314 843 l 314 163 q 301 99 314 129 q 267 47 289 69 q 215 13 244 25 q 151 0 185 0 l 42 0 l 42 129 z "},"-":{"ha":407,"x_min":28,"x_max":379,"o":"m 28 385 l 28 514 l 379 514 l 379 385 l 28 385 z "},"+":{"ha":476,"x_min":28,"x_max":449,"o":"m 28 385 l 28 514 l 174 514 l 174 660 l 303 660 l 303 514 l 449 514 l 449 385 l 303 385 l 303 239 l 174 239 l 174 385 l 28 385 z "},"*":{"ha":332,"x_min":28,"x_max":304,"o":"m 117 831 l 28 906 l 69 956 l 133 900 l 133 972 l 199 972 l 199 900 l 263 956 l 304 906 l 217 831 l 304 754 l 263 706 l 199 760 l 199 689 l 133 689 l 133 760 l 69 706 l 28 754 l 117 831 z "},"^":{"ha":743,"x_min":69,"x_max":674,"o":"m 69 571 l 297 972 l 446 972 l 674 571 l 525 571 l 372 842 l 218 571 l 69 571 z "},"/":{"ha":625,"x_min":42,"x_max":583,"o":"m 583 935 l 153 -37 l 42 -37 l 472 935 l 583 935 z "},"\\":{"ha":681,"x_min":69,"x_max":611,"o":"m 611 -37 l 500 -37 l 69 935 l 181 935 l 611 -37 z "},":":{"ha":201,"x_min":28,"x_max":174,"o":"m 28 133 l 28 279 l 174 279 l 174 133 l 28 133 m 174 717 l 174 571 l 28 571 l 28 717 l 174 717 z "},";":{"ha":203,"x_min":28,"x_max":174,"o":"m 28 133 l 28 279 l 174 279 l 174 133 l 101 56 l 101 133 l 28 133 m 28 717 l 174 717 l 174 571 l 28 571 l 28 717 z "},"<":{"ha":458,"x_min":28,"x_max":429,"o":"m 28 497 l 429 725 l 429 576 l 160 424 l 429 269 l 429 121 l 28 349 l 28 497 z "},"=":{"ha":476,"x_min":28,"x_max":449,"o":"m 449 618 l 449 488 l 28 488 l 28 618 l 449 618 m 28 281 l 28 410 l 449 410 l 449 281 l 28 281 z "},">":{"ha":458,"x_min":29,"x_max":431,"o":"m 29 121 l 29 269 l 299 424 l 29 576 l 29 725 l 431 497 l 431 349 l 29 121 z "},"!":{"ha":238,"x_min":46,"x_max":192,"o":"m 192 972 l 192 258 l 46 258 l 46 972 l 192 972 m 46 0 l 46 146 l 192 146 l 192 0 l 46 0 z "},"?":{"ha":556,"x_min":21,"x_max":528,"o":"m 21 810 q 33 873 21 843 q 68 925 46 903 q 120 960 90 947 q 183 972 150 972 l 365 972 q 428 960 399 972 q 481 925 458 947 q 515 873 503 903 q 528 810 528 843 l 528 583 q 515 520 528 550 q 481 468 503 490 q 428 433 458 446 q 365 421 399 421 l 265 421 l 265 243 l 119 243 l 119 389 q 132 452 119 422 q 167 503 144 482 q 219 538 189 525 q 282 551 249 551 l 382 551 l 382 843 l 167 843 l 167 699 l 21 699 l 21 810 m 265 146 l 265 0 l 119 0 l 119 146 l 265 146 z "},"|":{"ha":225,"x_min":47,"x_max":176,"o":"m 47 -37 l 47 935 l 176 935 l 176 -37 l 47 -37 z "},"_":{"ha":571,"x_min":7,"x_max":564,"o":"m 7 -37 l 7 93 l 564 93 l 564 -37 l 7 -37 z "},"–":{"ha":1079,"x_min":47,"x_max":1013,"o":"m 47 324 l 47 454 l 1013 454 l 1013 324 l 47 324 z "},"—":{"ha":1389,"x_min":0,"x_max":1389,"o":"m 0 0 l 0 131 l 1389 131 l 1389 0 l 0 0 z "},"™":{"ha":450,"x_min":21,"x_max":429,"o":"m 211 972 l 265 972 l 319 854 l 375 972 l 429 972 l 429 699 l 375 699 l 375 836 l 340 746 l 300 746 l 265 836 l 265 699 l 211 699 l 211 972 m 21 907 l 21 972 l 193 972 l 193 907 l 142 907 l 142 697 l 72 697 l 72 907 l 21 907 z "},"'":{"ha":229,"x_min":42,"x_max":188,"o":"m 42 972 l 188 972 l 188 826 l 115 749 l 115 826 l 42 826 l 42 972 z "},"\"":{"ha":431,"x_min":42,"x_max":389,"o":"m 243 972 l 389 972 l 389 826 l 317 749 l 317 826 l 243 826 l 243 972 m 42 972 l 188 972 l 188 826 l 115 749 l 115 826 l 42 826 l 42 972 z "},"‘":{"ha":243,"x_min":14,"x_max":160,"o":"m 160 749 l 14 749 l 14 894 l 86 972 l 86 894 l 160 894 l 160 749 z "},"’":{"ha":243,"x_min":14,"x_max":160,"o":"m 14 972 l 160 972 l 160 826 l 88 749 l 88 826 l 14 826 l 14 972 z "},"“":{"ha":413,"x_min":14,"x_max":358,"o":"m 213 749 l 213 894 l 285 972 l 285 894 l 358 894 l 358 749 l 213 749 m 14 749 l 14 894 l 86 972 l 86 894 l 160 894 l 160 749 l 14 749 z "},"”":{"ha":421,"x_min":14,"x_max":356,"o":"m 210 972 l 356 972 l 356 826 l 283 749 l 283 826 l 210 826 l 210 972 m 14 972 l 160 972 l 160 826 l 88 749 l 88 826 l 14 826 l 14 972 z "},"•":{"ha":522,"x_min":182,"x_max":342,"o":"m 182 286 l 182 446 l 342 446 l 342 286 l 182 286 z "},"‚":{"ha":218,"x_min":0,"x_max":146,"o":"m 0 146 l 146 146 l 146 0 l 74 -78 l 74 0 l 0 0 l 0 146 z "},"„":{"ha":431,"x_min":22,"x_max":372,"o":"m 226 0 l 226 146 l 372 146 l 372 0 l 300 -78 l 300 0 l 226 0 m 22 146 l 168 146 l 168 0 l 96 -78 l 96 0 l 22 0 l 22 146 z "},"…":{"ha":538,"x_min":17,"x_max":521,"o":"m 375 108 l 521 108 l 521 -37 l 375 -37 l 375 108 m 196 108 l 342 108 l 342 -37 l 196 -37 l 196 108 m 163 108 l 163 -37 l 17 -37 l 17 108 l 163 108 z "},"⁄":{"ha":625,"x_min":42,"x_max":583,"o":"m 583 935 l 153 -37 l 42 -37 l 472 935 l 583 935 z "},"ı":{"ha":240,"x_min":47,"x_max":193,"o":"m 47 0 l 47 882 l 193 882 l 193 0 l 47 0 z "},"ˆ":{"ha":299,"x_min":17,"x_max":279,"o":"m 128 958 l 168 958 l 279 771 l 211 771 l 149 858 l 88 771 l 17 771 l 128 958 z "},"˜":{"ha":340,"x_min":25,"x_max":314,"o":"m 28 792 q 47 858 25 838 q 100 878 68 878 q 117 876 110 878 q 133 872 125 875 q 151 863 140 868 q 176 850 161 857 q 213 831 200 839 q 242 824 225 824 q 267 833 260 824 q 275 868 275 843 l 313 868 q 292 799 314 815 q 242 782 271 782 q 209 788 222 782 q 164 810 196 794 q 130 828 142 821 q 100 836 118 836 q 74 828 83 836 q 64 792 65 819 l 28 792 l 28 792 z "},"˘":{"ha":324,"x_min":0,"x_max":282,"o":"m 60 972 q 85 916 65 939 q 142 893 106 893 q 201 919 182 893 q 224 972 221 944 l 282 972 q 244 869 282 908 q 142 831 206 831 q 77 843 104 831 q 33 875 50 856 q 8 920 15 894 q 0 972 0 946 l 60 972 z "},"˙":{"ha":254,"x_min":81,"x_max":213,"o":"m 81 763 l 81 894 l 213 894 l 213 763 l 81 763 z "},"˚":{"ha":374,"x_min":78,"x_max":347,"o":"m 78 803 q 88 855 78 831 q 117 898 99 879 q 160 927 136 917 q 213 938 185 938 q 265 927 240 938 q 308 898 290 917 q 337 855 326 879 q 347 803 347 831 q 337 751 347 775 q 308 708 326 726 q 265 678 290 689 q 213 668 240 668 q 160 678 185 668 q 117 708 136 689 q 88 751 99 726 q 78 803 78 775 m 126 803 q 151 742 126 767 q 213 717 176 717 q 274 742 249 717 q 299 803 299 767 q 274 864 299 839 q 213 889 249 889 q 151 864 176 889 q 126 803 126 839 z "},"˝":{"ha":525,"x_min":0,"x_max":467,"o":"m 172 1046 l 249 1000 l 42 810 l 0 854 l 172 1046 m 390 1046 l 467 1000 l 260 810 l 218 854 l 390 1046 z "},"˛":{"ha":224,"x_min":42,"x_max":182,"o":"m 42 -124 q 44 -97 42 -108 q 53 -72 47 -85 q 67 -43 58 -60 q 88 -1 76 -26 l 156 -1 q 123 -67 138 -37 q 108 -124 108 -96 q 123 -166 108 -151 q 182 -183 138 -181 l 182 -242 q 74 -211 106 -246 q 42 -124 42 -176 z "},"ˇ":{"ha":386,"x_min":64,"x_max":326,"o":"m 132 1018 l 194 931 l 256 1018 l 326 1018 l 215 831 l 175 831 l 64 1018 l 132 1018 z "},"~":{"ha":518,"x_min":39,"x_max":478,"o":"m 42 343 q 72 444 39 414 q 153 475 104 475 q 179 472 168 475 q 202 465 190 469 q 229 451 214 460 q 268 432 244 443 q 323 403 304 414 q 368 393 342 393 q 406 408 394 393 q 419 461 418 422 l 476 461 q 469 396 478 421 q 446 356 461 371 q 410 335 431 340 q 368 329 390 329 q 343 331 354 329 q 319 338 332 333 q 290 351 306 343 q 249 371 274 360 q 197 400 215 388 q 153 413 179 413 q 113 399 128 413 q 97 343 99 385 l 42 343 l 42 343 z "},"`":{"ha":222,"x_min":0,"x_max":182,"o":"m 96 903 l 182 761 l 121 761 l 0 903 l 96 903 z "},"†":{"ha":711,"x_min":149,"x_max":569,"o":"m 149 824 l 294 824 l 281 968 l 438 968 l 424 824 l 569 824 l 569 694 l 424 694 l 438 132 l 281 132 l 294 694 l 149 694 l 149 824 z "},"‡":{"ha":646,"x_min":140,"x_max":575,"o":"m 140 694 l 140 826 l 290 826 l 276 976 l 438 976 l 424 826 l 575 826 l 575 694 l 424 694 l 431 397 l 575 397 l 575 265 l 435 265 l 438 115 l 276 115 l 281 265 l 140 265 l 140 397 l 283 397 l 290 694 l 140 694 z "},"Š":{"ha":563,"x_min":28,"x_max":535,"o":"m 28 810 q 40 873 28 843 q 75 925 53 903 q 127 960 97 947 q 190 972 157 972 l 372 972 q 435 960 406 972 q 488 925 465 947 q 522 873 510 903 q 535 810 535 843 l 535 699 l 389 699 l 389 843 l 174 843 l 174 551 l 372 551 q 435 538 406 551 q 488 503 465 525 q 522 452 510 482 q 535 389 535 422 l 535 163 q 522 99 535 129 q 488 48 510 69 q 435 13 465 26 q 372 0 406 0 l 189 1 q 126 14 156 1 q 75 49 97 26 q 40 101 53 71 q 28 164 28 131 l 28 275 l 174 275 l 174 129 l 389 129 l 389 421 l 190 421 q 127 434 157 421 q 75 469 97 447 q 40 520 53 490 q 28 583 28 550 l 28 810 m 219 1296 l 282 1208 l 343 1296 l 414 1296 l 303 1108 l 263 1108 l 151 1296 l 219 1296 z "},"‹":{"ha":431,"x_min":56,"x_max":385,"o":"m 56 485 l 385 694 l 385 572 l 164 424 l 385 274 l 385 151 l 56 361 l 56 485 z "},"Ž":{"ha":560,"x_min":28,"x_max":532,"o":"m 28 146 l 392 826 l 28 826 l 28 972 l 532 972 l 532 826 l 168 146 l 532 146 l 532 0 l 28 0 l 28 146 m 217 1296 l 279 1208 l 340 1296 l 411 1296 l 300 1108 l 260 1108 l 149 1296 l 217 1296 z "},"ž":{"ha":560,"x_min":28,"x_max":532,"o":"m 28 146 l 385 736 l 28 736 l 28 882 l 532 882 l 532 736 l 176 146 l 532 146 l 532 0 l 28 0 l 28 146 m 217 1158 l 279 1071 l 340 1158 l 411 1158 l 300 971 l 260 971 l 149 1158 l 217 1158 z "},"š":{"ha":563,"x_min":28,"x_max":535,"o":"m 174 275 l 174 129 l 389 129 l 389 376 l 190 376 q 127 389 157 376 q 75 424 97 401 q 40 475 53 446 q 28 538 28 504 l 28 719 q 40 783 28 753 q 75 834 53 813 q 127 869 97 856 q 190 882 157 882 l 372 882 q 435 869 406 882 q 488 834 465 856 q 522 783 510 813 q 535 719 535 753 l 535 608 l 389 608 l 389 751 l 174 751 l 174 506 l 372 506 q 435 493 406 506 q 488 458 465 481 q 522 406 510 436 q 535 343 535 376 l 535 163 q 522 99 535 129 q 488 48 510 69 q 435 13 465 26 q 372 0 406 0 l 189 1 q 126 14 156 1 q 75 49 97 26 q 40 101 53 71 q 28 164 28 131 l 28 275 l 174 275 m 219 1161 l 282 1074 l 343 1161 l 414 1161 l 303 974 l 263 974 l 151 1161 l 219 1161 z "},"Œ":{"ha":860,"x_min":28,"x_max":825,"o":"m 28 810 q 40 873 28 843 q 75 925 53 903 q 127 960 97 947 q 190 972 157 972 l 825 972 l 825 843 l 536 843 l 536 571 l 768 571 l 768 440 l 536 440 l 536 129 l 825 129 l 825 0 l 190 0 q 127 13 157 0 q 75 47 97 25 q 40 99 53 69 q 28 163 28 129 l 28 810 m 389 129 l 389 843 l 174 843 l 174 129 l 389 129 z "},"›":{"ha":439,"x_min":56,"x_max":385,"o":"m 56 151 l 56 274 l 276 424 l 56 572 l 56 694 l 385 485 l 385 361 l 56 151 z "},"Ł":{"ha":533,"x_min":-28,"x_max":499,"o":"m 65 356 l 65 972 l 211 972 l 211 669 l 289 838 l 344 811 l 211 525 l 211 129 l 499 129 l 499 0 l 65 0 l 65 211 l 28 131 l -28 157 l 65 356 z "},"ł":{"ha":574,"x_min":14,"x_max":539,"o":"m 106 353 l 106 882 l 251 882 l 251 667 l 331 838 l 386 811 l 251 522 l 251 129 l 539 129 l 539 0 l 106 0 l 106 208 l 69 131 l 14 157 l 106 353 z "},"œ":{"ha":846,"x_min":28,"x_max":825,"o":"m 28 719 q 40 783 28 753 q 75 834 53 813 q 127 869 97 856 q 190 882 157 882 q 508 881 350 882 q 825 882 665 881 l 825 751 l 536 751 l 536 525 l 768 525 l 768 396 l 536 396 l 536 129 l 825 129 l 825 0 l 190 0 q 127 13 157 0 q 75 47 97 25 q 40 99 53 69 q 28 163 28 129 l 28 719 m 174 129 l 389 129 l 389 751 l 174 751 l 174 129 z "},"ƒ":{"ha":483,"x_min":47,"x_max":482,"o":"m 47 882 l 482 882 l 482 751 l 193 751 l 193 525 l 425 525 l 425 396 l 193 396 l 193 0 l 47 0 l 47 882 z "},"\u0000":{"ha":0,"x_min":0,"x_max":0,"o":""},"\r":{"ha":347,"x_min":0,"x_max":0,"o":""}," ":{"ha":347,"x_min":0,"x_max":0,"o":""}}}
